<svg width="838" height="1336" viewBox="0 0 838 1336" fill="none" xmlns="http://www.w3.org/2000/svg">
<g filter="url(#filter0_d_13_8)">
<rect x="4" width="830" height="1328" rx="50" fill="#209D55"/>
<g filter="url(#filter1_i_13_8)">
<path d="M335 40.5C335 33.0442 341.044 27 348.5 27H489.5C496.956 27 503 33.0442 503 40.5V40.5C503 47.9558 496.956 54 489.5 54H348.5C341.044 54 335 47.9558 335 40.5V40.5Z" fill="#F9692B"/>
</g>
<path fill-rule="evenodd" clip-rule="evenodd" d="M538.757 142.136L550.504 123.661C552.81 126.816 555.65 129.508 558.885 131.607C561.561 133.345 564.644 134.293 567.8 134.349C568.88 134.393 569.952 134.132 570.9 133.594C571.256 133.399 571.554 133.108 571.763 132.751C571.972 132.394 572.084 131.985 572.086 131.567C572.086 130.256 570.364 128.866 566.959 127.396L565.237 126.641C560.527 124.791 556.314 121.793 552.953 117.9C550.367 114.518 549.012 110.297 549.127 105.98C549.041 102.568 549.682 99.1774 551.005 96.0521C552.328 92.9269 554.3 90.144 556.78 87.9024C562.197 83.1562 569.138 80.7022 576.219 81.0289C580.609 80.9915 584.972 81.7443 589.114 83.2539C593.084 84.753 596.745 87.0177 599.905 89.9287L590.721 107.252C588.532 105.095 586.104 103.214 583.489 101.65C581.677 100.533 579.625 99.9045 577.52 99.8219C576.561 99.7749 575.616 100.069 574.841 100.656C574.511 100.915 574.245 101.252 574.065 101.639C573.886 102.026 573.798 102.452 573.808 102.881C573.808 104.47 575.798 106.179 579.739 107.967L582.226 109.119C586.444 110.912 590.165 113.765 593.056 117.423C595.288 120.85 596.401 124.931 596.232 129.064C596.293 132.571 595.607 136.049 594.225 139.249C592.843 142.45 590.797 145.294 588.234 147.579C582.642 152.608 575.423 155.249 568.03 154.969C562.767 154.98 557.558 153.871 552.724 151.711C547.527 149.377 542.751 146.139 538.604 142.136H538.757ZM504.012 85.002L505.122 82.6182H531.066L533.974 106.775L504.012 85.002ZM470.874 153.3H496.474L500.032 143.884H515.836L516.295 153.3H539.637L534.969 114.761L501.41 90.2466L470.797 153.3H470.874ZM506.537 127.197H514.918L514.65 119.608C514.65 119.171 514.65 118.615 514.65 117.82C514.65 114.642 514.42 112.139 514.42 110.192C514.42 108.92 514.42 107.927 514.42 107.212C514.42 106.497 514.42 105.861 514.42 105.265C513.846 107.172 513.31 109 512.736 110.748C512.162 112.496 511.627 114.085 511.129 115.436L506.499 127.356L506.537 127.197ZM432.188 153.3L421.052 82.6182H444.777L447.226 104.868C447.532 107.808 447.762 110.589 447.915 113.291C448.068 115.993 448.182 118.655 448.221 121.237C448.884 118.747 449.649 116.204 450.517 113.609C451.359 111.026 452.353 108.444 453.463 105.662L463.221 82.6182H489.28L453.463 153.3H432.188Z" fill="white"/>
<path fill-rule="evenodd" clip-rule="evenodd" d="M382.328 153.3L394.459 82.6182H418.566L406.512 153.3H382.328ZM303.999 153.3L316.091 82.6182H340.16L347.813 105.066C347.813 105.424 348.119 105.98 348.387 106.695C349.838 110.842 351.001 115.091 351.869 119.41L358.068 82.6182H381.869L369.701 153.3H345.708L333.54 116.787C333.169 122.201 332.491 127.587 331.512 132.918V133.514L328.144 153.38L303.999 153.3ZM245.338 82.6182L240.172 112.814C239.407 117.224 238.909 120.76 238.603 123.144C238.326 125.198 238.173 127.268 238.144 129.342C237.978 132.894 238.579 136.439 239.903 139.719C241.227 142.998 243.241 145.928 245.797 148.294C251.696 153.175 259.122 155.622 266.652 155.168C271.513 155.23 276.322 154.115 280.695 151.91C284.907 149.773 288.537 146.577 291.257 142.613C292.895 140.17 294.184 137.493 295.083 134.666C296.394 130.566 297.405 126.369 298.106 122.111L304.726 82.6182H280.734L274.688 118.376C274.262 122.503 273.19 126.529 271.512 130.296C271.025 131.053 270.355 131.664 269.569 132.069C268.784 132.473 267.91 132.656 267.035 132.6C266.331 132.678 265.619 132.586 264.955 132.331C264.292 132.076 263.694 131.665 263.208 131.13C262.298 129.923 261.849 128.409 261.945 126.879C261.966 125.961 262.043 125.045 262.175 124.138C262.175 122.985 262.672 120.641 263.284 117.185L269.407 82.6182H245.338Z" fill="white"/>
<path d="M240.057 164.465L239.062 170.425C239.062 171.1 238.832 171.736 238.756 172.252C238.724 172.702 238.724 173.153 238.756 173.603C238.718 174.529 238.95 175.444 239.421 176.231C239.892 177.018 240.58 177.639 241.396 178.013C242.368 178.42 243.409 178.623 244.457 178.609C245.104 178.601 245.747 178.507 246.371 178.331C246.969 178.142 247.536 177.861 248.054 177.497C248.504 177.193 248.904 176.818 249.24 176.384C249.604 175.863 249.888 175.287 250.082 174.676C250.319 173.923 250.498 173.153 250.618 172.371L251.957 164.465H247.174L245.797 171.458C245.797 171.934 245.72 172.332 245.567 172.649C245.511 172.951 245.421 173.244 245.299 173.524C245.214 173.726 245.083 173.903 244.916 174.04C244.702 174.085 244.481 174.085 244.266 174.04C243.999 174.041 243.741 173.942 243.539 173.762C243.373 173.519 243.292 173.225 243.309 172.928C243.279 172.69 243.279 172.45 243.309 172.212C243.346 171.824 243.41 171.439 243.501 171.06L244.878 164.465H240.057ZM251.843 178.132L254.253 164.465H259.075L260.567 168.796C260.567 169.113 260.835 169.511 260.988 169.987C261.141 170.464 261.256 170.941 261.371 171.577L262.633 164.465H267.417L264.929 178.252H260.184L257.735 171.179C257.773 171.695 257.773 172.213 257.735 172.729C257.735 173.285 257.735 173.841 257.468 174.398L256.779 178.371L251.843 178.132ZM267.493 178.132H272.315L274.764 164.465H269.904L267.493 178.132ZM277.48 178.132H281.728L288.922 164.465H283.679L281.728 168.915C281.328 169.886 280.983 170.881 280.695 171.895C280.695 171.338 280.695 170.822 280.695 170.305V168.756L280.006 164.465H275.261L277.48 178.132ZM287.162 178.132L289.611 164.465H298.603L297.952 168.16H293.667L293.437 169.471H297.455L296.843 172.967H292.825L292.557 174.398H297.225L296.575 178.132H287.162ZM304.611 170.504L305.07 167.882H305.376C305.826 167.848 306.276 167.944 306.677 168.16C306.813 168.244 306.922 168.369 306.99 168.517C307.058 168.665 307.082 168.831 307.06 168.994C307.094 169.216 307.065 169.443 306.976 169.647C306.888 169.852 306.744 170.025 306.562 170.146C306.077 170.44 305.514 170.565 304.955 170.504H304.611ZM298.526 178.132H303.195L304.075 173.166L305.491 178.132H310.465L308.552 172.888C309.191 172.75 309.793 172.465 310.312 172.054C310.802 171.676 311.186 171.168 311.422 170.583C311.677 169.955 311.808 169.279 311.805 168.597C311.83 168.001 311.711 167.408 311.456 166.873C311.202 166.338 310.822 165.879 310.35 165.538C309.027 164.749 307.512 164.376 305.988 164.465H300.937L298.526 178.132ZM311.384 175.947L313.718 172.371C314.183 173.016 314.769 173.556 315.44 173.961C315.966 174.272 316.556 174.449 317.162 174.477C317.375 174.533 317.599 174.533 317.812 174.477C317.812 174.477 318.042 174.278 318.042 174.08C318.065 174.03 318.078 173.976 318.078 173.921C318.078 173.866 318.065 173.811 318.042 173.762L317.583 173.444L316.817 173.126C316.17 172.881 315.563 172.532 315.019 172.093C314.573 171.76 314.206 171.325 313.947 170.822C313.709 170.301 313.591 169.73 313.603 169.153C313.585 168.495 313.716 167.842 313.986 167.246C314.226 166.653 314.593 166.123 315.057 165.696C315.568 165.258 316.151 164.922 316.779 164.703C317.464 164.51 318.174 164.43 318.884 164.465C319.754 164.445 320.621 164.579 321.447 164.862C322.246 165.157 322.985 165.601 323.629 166.173L321.792 169.511C321.344 169.102 320.856 168.743 320.338 168.438C319.964 168.215 319.544 168.093 319.113 168.08C318.94 168.017 318.751 168.017 318.578 168.08C318.514 168.187 318.487 168.313 318.501 168.438C318.504 168.524 318.526 168.609 318.566 168.685C318.606 168.761 318.662 168.826 318.731 168.875C318.9 169.029 319.094 169.15 319.305 169.233L320.185 169.63C320.743 169.879 321.27 170.2 321.754 170.583C322.155 170.907 322.47 171.331 322.672 171.815C322.897 172.339 323.002 172.91 322.978 173.484C322.992 174.154 322.861 174.82 322.595 175.431C322.3 176.033 321.898 176.573 321.409 177.02C320.894 177.491 320.296 177.856 319.649 178.093C318.909 178.353 318.134 178.487 317.353 178.49C316.314 178.493 315.286 178.277 314.33 177.854C313.283 177.42 312.322 176.787 311.498 175.987L311.384 175.947ZM323.208 178.132H328.029L330.478 164.465H325.618L323.208 178.132ZM330.555 178.132H334.687C335.579 178.196 336.474 178.196 337.366 178.132C338.133 178.017 338.888 177.831 339.624 177.576C340.287 177.271 340.906 176.87 341.46 176.384C342.031 175.95 342.535 175.428 342.953 174.835C343.334 174.227 343.643 173.573 343.871 172.888C344.087 172.168 344.191 171.417 344.177 170.663C344.187 169.893 344.071 169.127 343.833 168.398C343.573 167.733 343.211 167.116 342.761 166.571C342.249 166.024 341.655 165.568 341.001 165.22C340.402 164.958 339.771 164.784 339.126 164.703C338.221 164.655 337.314 164.655 336.409 164.703H332.889L330.44 178.371L330.555 178.132ZM336.065 174.159L337.021 168.756C337.47 168.74 337.916 168.835 338.323 169.034C338.667 169.199 338.95 169.479 339.126 169.829C339.325 170.192 339.431 170.602 339.432 171.021C339.449 171.607 339.303 172.186 339.011 172.689C338.737 173.165 338.339 173.551 337.863 173.802C337.283 174.057 336.657 174.179 336.027 174.159H336.065ZM343.221 178.132L350.07 164.465H355.274L356.996 178.132H352.328V176.305H349.113L348.386 178.132H343.221ZM350.376 173.087H352.06V171.616C352.077 171.339 352.077 171.06 352.06 170.782V168.835C351.956 169.24 351.828 169.638 351.677 170.027C351.606 170.298 351.517 170.564 351.409 170.822L350.491 173.087H350.376ZM357.647 178.132H361.779C362.671 178.196 363.566 178.196 364.458 178.132C365.225 178.017 365.98 177.831 366.716 177.576C367.412 177.3 368.069 176.926 368.667 176.464C369.238 176.03 369.742 175.507 370.159 174.914C370.556 174.316 370.865 173.66 371.078 172.967C371.307 172.25 371.423 171.498 371.422 170.742C371.42 169.97 371.291 169.204 371.04 168.478C370.795 167.805 370.431 167.185 369.968 166.65C369.47 166.093 368.889 165.623 368.246 165.259C367.647 164.997 367.016 164.823 366.371 164.743C365.466 164.695 364.559 164.695 363.654 164.743H360.134L357.685 178.411L357.647 178.132ZM363.157 174.159L364.113 168.756C364.562 168.74 365.008 168.835 365.414 169.034C365.759 169.199 366.042 169.479 366.218 169.829C366.417 170.192 366.523 170.602 366.524 171.021C366.541 171.607 366.395 172.186 366.103 172.689C365.829 173.165 365.431 173.551 364.955 173.802C364.375 174.057 363.748 174.179 363.119 174.159H363.157ZM371.958 178.132H381.371L382.022 174.398H377.353L377.621 172.967H381.448L382.06 169.471H378.233L378.463 168.16H382.749L383.552 164.465H374.369L372.073 178.252L371.958 178.132ZM389.598 178.132H393.731C394.623 178.197 395.518 178.197 396.41 178.132C397.189 178.017 397.957 177.831 398.705 177.576C399.39 177.3 400.034 176.925 400.619 176.464C401.19 176.03 401.693 175.507 402.111 174.914C402.523 174.325 402.834 173.666 403.029 172.967C403.259 172.25 403.375 171.498 403.374 170.742C403.372 169.97 403.242 169.204 402.991 168.478C402.746 167.805 402.383 167.185 401.92 166.65C401.415 166.095 400.819 165.637 400.16 165.299C399.561 165.037 398.93 164.863 398.285 164.783C397.392 164.735 396.498 164.735 395.606 164.783H392.047L389.598 178.45V178.132ZM395.109 174.159L396.065 168.756C396.514 168.735 396.961 168.831 397.366 169.034C397.711 169.199 397.994 169.479 398.17 169.829C398.369 170.192 398.475 170.602 398.476 171.021C398.493 171.607 398.347 172.186 398.055 172.689C397.803 173.183 397.398 173.574 396.907 173.802C396.339 174.053 395.726 174.175 395.109 174.159ZM411.218 178.649C412.348 178.66 413.468 178.43 414.509 177.974C415.493 177.514 416.368 176.836 417.073 175.987C417.669 175.279 418.124 174.455 418.412 173.563C418.723 172.644 418.878 171.677 418.871 170.703C418.882 169.819 418.726 168.942 418.412 168.12C418.116 167.35 417.658 166.658 417.073 166.094C416.459 165.52 415.744 165.075 414.968 164.783C414.088 164.508 413.168 164.401 412.251 164.465C411.489 164.467 410.73 164.574 409.994 164.783C409.29 164.98 408.618 165.288 408.004 165.696C407.416 166.106 406.877 166.586 406.397 167.127C405.82 167.849 405.367 168.669 405.058 169.55C404.744 170.469 404.589 171.437 404.598 172.411C404.61 173.03 404.7 173.644 404.866 174.239C405.009 174.817 405.242 175.367 405.555 175.868C405.836 176.378 406.198 176.835 406.626 177.219C407.224 177.745 407.912 178.15 408.654 178.411C409.486 178.674 410.349 178.808 411.218 178.808V178.649ZM411.945 168.835C412.336 168.832 412.721 168.942 413.055 169.153C413.391 169.332 413.67 169.608 413.859 169.948C414.033 170.333 414.124 170.754 414.126 171.179C414.122 171.559 414.057 171.934 413.935 172.292C413.818 172.652 413.622 172.979 413.361 173.245C413.146 173.521 412.87 173.739 412.558 173.881C412.236 174.043 411.882 174.125 411.524 174.12C411.121 174.128 410.723 174.018 410.376 173.802C410.049 173.606 409.783 173.316 409.611 172.967C409.42 172.588 409.328 172.163 409.343 171.736C409.267 171.356 409.267 170.963 409.343 170.583C409.47 170.249 409.651 169.94 409.879 169.67C410.121 169.418 410.407 169.215 410.721 169.074C411.043 168.912 411.396 168.83 411.754 168.835H411.945ZM428.514 178.291H432.762L439.956 164.465H434.713L432.762 168.915C432.345 169.879 432 170.876 431.729 171.895C431.729 171.338 431.729 170.822 431.729 170.305V168.756L431.04 164.465H426.295L428.514 178.132V178.291ZM436.167 178.291L443.093 164.465H448.298L449.981 178.132H445.313V176.305H442.137L441.448 178.132L436.167 178.291ZM443.323 173.245H445.007V171.775C444.986 171.498 444.986 171.219 445.007 170.941C444.986 170.61 444.986 170.278 445.007 169.948V169.511C444.988 169.339 444.988 169.166 445.007 168.994L444.624 170.186L444.318 170.981L443.4 173.245H443.323ZM450.632 178.291H459.509L460.236 174.08H456.257L457.94 164.465H453.081L450.67 178.132L450.632 178.291ZM460.696 178.291H470.109L470.759 174.557H466.168L466.397 173.126H470.415L471.027 169.63H467.201L467.43 168.319H471.563L472.213 164.624H463.183L460.734 178.291H460.696ZM478.374 178.291H482.507C483.399 178.354 484.294 178.354 485.185 178.291C485.952 178.176 486.708 177.99 487.443 177.735C488.14 177.459 488.796 177.085 489.395 176.623C489.963 176.199 490.455 175.674 490.849 175.073C491.257 174.476 491.58 173.82 491.805 173.126C492.004 172.402 492.107 171.654 492.111 170.901C492.122 170.132 492.005 169.366 491.767 168.637C491.228 167.241 490.204 166.107 488.897 165.458C488.3 165.191 487.668 165.017 487.022 164.942C486.13 164.893 485.236 164.893 484.344 164.942H480.785L478.374 178.609V178.291ZM483.846 174.318L484.803 168.915C485.24 168.894 485.674 168.99 486.066 169.193C486.428 169.345 486.727 169.627 486.907 169.987C487.095 170.354 487.187 170.765 487.175 171.179C487.204 171.762 487.071 172.341 486.793 172.848C486.519 173.324 486.121 173.71 485.645 173.961C485.064 174.216 484.438 174.338 483.808 174.318H483.846ZM499.994 178.808C501.112 178.819 502.219 178.589 503.247 178.132C504.237 177.683 505.114 177.004 505.811 176.146C506.405 175.43 506.871 174.609 507.188 173.722C507.48 172.798 507.635 171.834 507.647 170.862C507.645 169.975 507.476 169.098 507.15 168.279C506.935 167.456 506.543 166.695 506.002 166.054C505.394 165.472 504.678 165.026 503.897 164.743C502.966 164.462 501.992 164.368 501.027 164.465C500.277 164.468 499.531 164.575 498.808 164.783C498.104 164.98 497.433 165.288 496.818 165.696C496.215 166.085 495.673 166.568 495.211 167.127C494.607 167.829 494.151 168.654 493.872 169.55C493.558 170.469 493.403 171.437 493.413 172.411C493.411 173.028 493.488 173.643 493.642 174.239C493.785 174.817 494.017 175.367 494.331 175.868C494.624 176.369 494.985 176.824 495.402 177.219C496.019 177.738 496.718 178.141 497.469 178.411C498.3 178.674 499.164 178.808 500.032 178.808H499.994ZM500.683 168.994C501.086 168.996 501.481 169.105 501.831 169.312C502.148 169.503 502.412 169.777 502.596 170.107C502.8 170.482 502.906 170.907 502.902 171.338C502.904 171.722 502.826 172.102 502.673 172.451C502.556 172.802 502.374 173.126 502.137 173.404C501.914 173.671 501.64 173.888 501.333 174.04C500.997 174.199 500.632 174.28 500.262 174.278C499.859 174.283 499.462 174.173 499.114 173.961C498.787 173.765 498.521 173.475 498.349 173.126C498.175 172.741 498.083 172.32 498.081 171.895C498.023 171.513 498.023 171.124 498.081 170.742C498.222 170.407 498.416 170.098 498.655 169.829C498.89 169.586 499.161 169.385 499.458 169.233C499.783 169.078 500.135 168.997 500.492 168.994H500.683ZM513.808 176.265C514.638 177.056 515.597 177.689 516.64 178.132C517.595 178.555 518.624 178.771 519.663 178.768C520.444 178.765 521.219 178.631 521.959 178.371C522.606 178.134 523.204 177.769 523.719 177.298C524.23 176.873 524.636 176.329 524.905 175.709C525.166 175.094 525.309 174.433 525.326 173.762C525.332 173.19 525.228 172.623 525.02 172.093C524.79 171.616 524.464 171.196 524.063 170.862C523.585 170.469 523.057 170.149 522.494 169.908L521.614 169.511C521.404 169.428 521.209 169.307 521.04 169.153C520.972 169.104 520.916 169.039 520.876 168.963C520.836 168.887 520.814 168.802 520.811 168.716C520.81 168.629 520.831 168.543 520.871 168.467C520.911 168.391 520.97 168.326 521.04 168.279C521.213 168.212 521.403 168.212 521.576 168.279C521.993 168.296 522.401 168.419 522.762 168.637C523.287 168.932 523.775 169.292 524.216 169.709L526.053 166.372C525.409 165.8 524.67 165.356 523.872 165.061C523.057 164.71 522.189 164.509 521.308 164.465C520.541 164.451 519.778 164.572 519.05 164.822C518.43 165.032 517.857 165.37 517.367 165.816C516.891 166.241 516.512 166.77 516.257 167.365C515.988 167.961 515.857 168.614 515.874 169.272C515.862 169.849 515.98 170.42 516.219 170.941C516.49 171.436 516.854 171.868 517.29 172.212C517.835 172.651 518.441 173 519.089 173.245L519.854 173.563L520.313 173.881C520.337 173.931 520.349 173.985 520.349 174.04C520.349 174.095 520.337 174.15 520.313 174.199C520.313 174.398 520.313 174.477 520.084 174.596C519.883 174.652 519.672 174.652 519.471 174.596C518.853 174.574 518.249 174.397 517.711 174.08C517.04 173.675 516.455 173.135 515.989 172.491L513.655 176.066L513.808 176.265ZM524.254 178.45L531.142 164.465H536.346L538.068 178.132H533.4V176.305H530.262L529.535 178.132L524.254 178.45ZM531.41 173.404H533.094V171.934C533.111 171.656 533.111 171.378 533.094 171.1V169.153C532.99 169.558 532.862 169.956 532.711 170.345C532.64 170.616 532.551 170.882 532.443 171.14L531.525 173.404H531.41ZM538.681 178.45H543.502L544.267 174.04H546.142C547.254 174.075 548.362 173.872 549.395 173.444C550.216 173.088 550.91 172.477 551.385 171.696C551.823 170.881 552.059 169.967 552.074 169.034C552.107 168.397 551.992 167.762 551.739 167.181C551.486 166.6 551.102 166.091 550.619 165.696C549.318 164.807 547.775 164.375 546.219 164.465H541.168L538.719 178.132L538.681 178.45ZM544.841 170.703L545.262 168.358H545.492C545.95 168.331 546.408 168.413 546.831 168.597C546.965 168.666 547.075 168.775 547.15 168.909C547.225 169.043 547.26 169.197 547.252 169.352C547.257 169.548 547.214 169.742 547.127 169.915C547.04 170.089 546.912 170.237 546.755 170.345C546.274 170.615 545.731 170.739 545.186 170.703H544.841ZM554.561 164.465L553.528 170.305C553.528 170.981 553.298 171.616 553.221 172.133C553.19 172.583 553.19 173.034 553.221 173.484C553.187 174.423 553.427 175.351 553.91 176.146C554.39 176.907 555.066 177.513 555.862 177.894C557.456 178.559 559.214 178.67 560.875 178.212C562.055 177.826 563.096 177.078 563.859 176.066C564.195 175.534 564.465 174.96 564.663 174.358C564.913 173.607 565.105 172.836 565.237 172.054L566.423 164.465H561.64L560.415 171.338C560.391 171.745 560.314 172.146 560.186 172.53C560.129 172.831 560.039 173.125 559.918 173.404C559.833 173.606 559.701 173.784 559.535 173.921C559.333 173.966 559.125 173.966 558.923 173.921C558.644 173.928 558.372 173.829 558.158 173.643C557.992 173.4 557.911 173.106 557.928 172.808C557.928 172.808 557.928 172.411 557.928 172.093C557.928 171.775 557.928 171.378 557.928 170.941L559.574 164.465H554.561ZM576.525 173.087C576.266 173.284 575.983 173.444 575.683 173.563L574.803 173.841C574.549 173.879 574.292 173.879 574.038 173.841C573.614 173.857 573.193 173.761 572.813 173.563C572.477 173.385 572.198 173.109 572.01 172.769C571.833 172.37 571.741 171.936 571.742 171.497C571.728 170.966 571.861 170.442 572.125 169.987C572.354 169.551 572.699 169.192 573.12 168.954C573.566 168.706 574.067 168.583 574.574 168.597C575.015 168.585 575.455 168.652 575.875 168.796L577.176 169.392L577.979 164.862C577.471 164.673 576.945 164.539 576.41 164.465C575.091 164.125 573.712 164.125 572.392 164.465C571.688 164.662 571.017 164.97 570.403 165.379C569.8 165.768 569.258 166.25 568.796 166.809C568.219 167.531 567.766 168.351 567.456 169.233C567.146 170.152 566.99 171.119 566.997 172.093C566.996 172.71 567.073 173.325 567.227 173.921C567.377 174.509 567.609 175.071 567.915 175.59C568.219 176.071 568.579 176.511 568.987 176.901C569.562 177.418 570.223 177.822 570.938 178.093C571.68 178.346 572.454 178.48 573.234 178.49C573.642 178.529 574.052 178.529 574.459 178.49C574.864 178.408 575.261 178.288 575.645 178.132L576.525 173.206V173.087ZM576.755 178.132L583.604 164.465H588.808L590.53 178.132H585.862V176.305H582.533L581.806 178.132H576.755ZM583.91 173.087H585.556V171.616C585.573 171.339 585.573 171.06 585.556 170.782V168.835C585.451 169.24 585.324 169.638 585.173 170.027L584.905 170.822L583.987 173.087H583.91ZM594.586 163.114H596.079L599.408 159.856H596.576L594.586 163.114ZM591.296 178.132H596.117L598.528 164.465H593.706L591.296 178.132Z" fill="white"/>
<path d="M4 206H834V1278C834 1305.61 811.614 1328 784 1328H54C26.3858 1328 4 1305.61 4 1278V206Z" fill="white"/>
</g>
<defs>
<filter id="filter0_d_13_8" x="0" y="0" width="838" height="1336" filterUnits="userSpaceOnUse" color-interpolation-filters="sRGB">
<feFlood flood-opacity="0" result="BackgroundImageFix"/>
<feColorMatrix in="SourceAlpha" type="matrix" values="0 0 0 0 0 0 0 0 0 0 0 0 0 0 0 0 0 0 127 0" result="hardAlpha"/>
<feOffset dy="4"/>
<feGaussianBlur stdDeviation="2"/>
<feComposite in2="hardAlpha" operator="out"/>
<feColorMatrix type="matrix" values="0 0 0 0 0 0 0 0 0 0 0 0 0 0 0 0 0 0 0.25 0"/>
<feBlend mode="normal" in2="BackgroundImageFix" result="effect1_dropShadow_13_8"/>
<feBlend mode="normal" in="SourceGraphic" in2="effect1_dropShadow_13_8" result="shape"/>
</filter>
<filter id="filter1_i_13_8" x="335" y="27" width="168" height="29" filterUnits="userSpaceOnUse" color-interpolation-filters="sRGB">
<feFlood flood-opacity="0" result="BackgroundImageFix"/>
<feBlend mode="normal" in="SourceGraphic" in2="BackgroundImageFix" result="shape"/>
<feColorMatrix in="SourceAlpha" type="matrix" values="0 0 0 0 0 0 0 0 0 0 0 0 0 0 0 0 0 0 127 0" result="hardAlpha"/>
<feOffset dy="2"/>
<feGaussianBlur stdDeviation="2"/>
<feComposite in2="hardAlpha" operator="arithmetic" k2="-1" k3="1"/>
<feColorMatrix type="matrix" values="0 0 0 0 0 0 0 0 0 0 0 0 0 0 0 0 0 0 0.25 0"/>
<feBlend mode="normal" in2="shape" result="effect1_innerShadow_13_8"/>
</filter>
</defs>
</svg>
