<svg id="visual" viewBox="0 0 1920 1080" width="1920" height="1080" xmlns="http://www.w3.org/2000/svg" xmlns:xlink="http://www.w3.org/1999/xlink" version="1.1"><rect x="0" y="0" width="1920" height="1080" fill="#F9692B"></rect><path d="M0 686L32 686.3C64 686.7 128 687.3 192 699C256 710.7 320 733.3 384 727.5C448 721.7 512 687.3 576 685.3C640 683.3 704 713.7 768 718.5C832 723.3 896 702.7 960 698C1024 693.3 1088 704.7 1152 704.8C1216 705 1280 694 1344 699.5C1408 705 1472 727 1536 724.2C1600 721.3 1664 693.7 1728 677.5C1792 661.3 1856 656.7 1888 654.3L1920 652L1920 1081L1888 1081C1856 1081 1792 1081 1728 1081C1664 1081 1600 1081 1536 1081C1472 1081 1408 1081 1344 1081C1280 1081 1216 1081 1152 1081C1088 1081 1024 1081 960 1081C896 1081 832 1081 768 1081C704 1081 640 1081 576 1081C512 1081 448 1081 384 1081C320 1081 256 1081 192 1081C128 1081 64 1081 32 1081L0 1081Z" fill="#003a62"></path><path d="M0 746L32 758C64 770 128 794 192 794.7C256 795.3 320 772.7 384 760C448 747.3 512 744.7 576 743.2C640 741.7 704 741.3 768 753.5C832 765.7 896 790.3 960 799C1024 807.7 1088 800.3 1152 794.5C1216 788.7 1280 784.3 1344 785C1408 785.7 1472 791.3 1536 791C1600 790.7 1664 784.3 1728 776.8C1792 769.3 1856 760.7 1888 756.3L1920 752L1920 1081L1888 1081C1856 1081 1792 1081 1728 1081C1664 1081 1600 1081 1536 1081C1472 1081 1408 1081 1344 1081C1280 1081 1216 1081 1152 1081C1088 1081 1024 1081 960 1081C896 1081 832 1081 768 1081C704 1081 640 1081 576 1081C512 1081 448 1081 384 1081C320 1081 256 1081 192 1081C128 1081 64 1081 32 1081L0 1081Z" fill="#021f35"></path><path d="M0 878L32 872.5C64 867 128 856 192 860.8C256 865.7 320 886.3 384 889.2C448 892 512 877 576 865.5C640 854 704 846 768 854C832 862 896 886 960 888.2C1024 890.3 1088 870.7 1152 868.8C1216 867 1280 883 1344 886C1408 889 1472 879 1536 873.8C1600 868.7 1664 868.3 1728 869.2C1792 870 1856 872 1888 873L1920 874L1920 1081L1888 1081C1856 1081 1792 1081 1728 1081C1664 1081 1600 1081 1536 1081C1472 1081 1408 1081 1344 1081C1280 1081 1216 1081 1152 1081C1088 1081 1024 1081 960 1081C896 1081 832 1081 768 1081C704 1081 640 1081 576 1081C512 1081 448 1081 384 1081C320 1081 256 1081 192 1081C128 1081 64 1081 32 1081L0 1081Z" fill="#00111e"></path><path d="M0 986L32 977.5C64 969 128 952 192 954C256 956 320 977 384 985C448 993 512 988 576 985.2C640 982.3 704 981.7 768 981.3C832 981 896 981 960 984.3C1024 987.7 1088 994.3 1152 992C1216 989.7 1280 978.3 1344 976.7C1408 975 1472 983 1536 977.5C1600 972 1664 953 1728 947.7C1792 942.3 1856 950.7 1888 954.8L1920 959L1920 1081L1888 1081C1856 1081 1792 1081 1728 1081C1664 1081 1600 1081 1536 1081C1472 1081 1408 1081 1344 1081C1280 1081 1216 1081 1152 1081C1088 1081 1024 1081 960 1081C896 1081 832 1081 768 1081C704 1081 640 1081 576 1081C512 1081 448 1081 384 1081C320 1081 256 1081 192 1081C128 1081 64 1081 32 1081L0 1081Z" fill="#000f19"></path></svg>