<svg width="648" height="1080" viewBox="0 0 648 1080" fill="none" xmlns="http://www.w3.org/2000/svg">
<g clip-path="url(#clip0_2_12)">
<rect width="648" height="1080" fill="white"/>
<g clip-path="url(#clip1_2_12)">
<path d="M2047 0H0V1080H2047V0Z" fill="#F9692B"/>
<path d="M0 686L34.1167 686.3C68.2333 686.7 136.467 687.3 204.7 699C272.933 710.7 341.167 733.3 409.4 727.5C477.633 721.7 545.867 687.3 614.1 685.3C682.333 683.3 750.567 713.7 818.8 718.5C887.033 723.3 955.267 702.7 1023.5 698C1091.73 693.3 1159.97 704.7 1228.2 704.8C1296.43 705 1364.67 694 1432.9 699.5C1501.13 705 1569.37 727 1637.6 724.2C1705.83 721.3 1774.07 693.7 1842.3 677.5C1910.53 661.3 1978.77 656.7 2012.88 654.3L2047 652V1081H2012.88C1978.77 1081 1910.53 1081 1842.3 1081C1774.07 1081 1705.83 1081 1637.6 1081C1569.37 1081 1501.13 1081 1432.9 1081C1364.67 1081 1296.43 1081 1228.2 1081C1159.97 1081 1091.73 1081 1023.5 1081C955.267 1081 887.033 1081 818.8 1081C750.567 1081 682.333 1081 614.1 1081C545.867 1081 477.633 1081 409.4 1081C341.167 1081 272.933 1081 204.7 1081C136.467 1081 68.2333 1081 34.1167 1081H0V686Z" fill="#003A62"/>
<path d="M0 746L34.1167 758C68.2333 770 136.467 794 204.7 794.7C272.933 795.3 341.167 772.7 409.4 760C477.633 747.3 545.867 744.7 614.1 743.2C682.333 741.7 750.567 741.3 818.8 753.5C887.033 765.7 955.267 790.3 1023.5 799C1091.73 807.7 1159.97 800.3 1228.2 794.5C1296.43 788.7 1364.67 784.3 1432.9 785C1501.13 785.7 1569.37 791.3 1637.6 791C1705.83 790.7 1774.07 784.3 1842.3 776.8C1910.53 769.3 1978.77 760.7 2012.88 756.3L2047 752V1081H2012.88C1978.77 1081 1910.53 1081 1842.3 1081C1774.07 1081 1705.83 1081 1637.6 1081C1569.37 1081 1501.13 1081 1432.9 1081C1364.67 1081 1296.43 1081 1228.2 1081C1159.97 1081 1091.73 1081 1023.5 1081C955.267 1081 887.033 1081 818.8 1081C750.567 1081 682.333 1081 614.1 1081C545.867 1081 477.633 1081 409.4 1081C341.167 1081 272.933 1081 204.7 1081C136.467 1081 68.2333 1081 34.1167 1081H0V746Z" fill="#021F35"/>
<path d="M0 878L34.1167 872.5C68.2333 867 136.467 856 204.7 860.8C272.933 865.7 341.167 886.3 409.4 889.2C477.633 892 545.867 877 614.1 865.5C682.333 854 750.567 846 818.8 854C887.033 862 955.267 886 1023.5 888.2C1091.73 890.3 1159.97 870.7 1228.2 868.8C1296.43 867 1364.67 883 1432.9 886C1501.13 889 1569.37 879 1637.6 873.8C1705.83 868.7 1774.07 868.3 1842.3 869.2C1910.53 870 1978.77 872 2012.88 873L2047 874V1081H2012.88C1978.77 1081 1910.53 1081 1842.3 1081C1774.07 1081 1705.83 1081 1637.6 1081C1569.37 1081 1501.13 1081 1432.9 1081C1364.67 1081 1296.43 1081 1228.2 1081C1159.97 1081 1091.73 1081 1023.5 1081C955.267 1081 887.033 1081 818.8 1081C750.567 1081 682.333 1081 614.1 1081C545.867 1081 477.633 1081 409.4 1081C341.167 1081 272.933 1081 204.7 1081C136.467 1081 68.2333 1081 34.1167 1081H0V878Z" fill="#00111E"/>
<path d="M0 986L34.1167 977.5C68.2333 969 136.467 952 204.7 954C272.933 956 341.167 977 409.4 985C477.633 993 545.867 988 614.1 985.2C682.333 982.3 750.567 981.7 818.8 981.3C887.033 981 955.267 981 1023.5 984.3C1091.73 987.7 1159.97 994.3 1228.2 992C1296.43 989.7 1364.67 978.3 1432.9 976.7C1501.13 975 1569.37 983 1637.6 977.5C1705.83 972 1774.07 953 1842.3 947.7C1910.53 942.3 1978.77 950.7 2012.88 954.8L2047 959V1081H2012.88C1978.77 1081 1910.53 1081 1842.3 1081C1774.07 1081 1705.83 1081 1637.6 1081C1569.37 1081 1501.13 1081 1432.9 1081C1364.67 1081 1296.43 1081 1228.2 1081C1159.97 1081 1091.73 1081 1023.5 1081C955.267 1081 887.033 1081 818.8 1081C750.567 1081 682.333 1081 614.1 1081C545.867 1081 477.633 1081 409.4 1081C341.167 1081 272.933 1081 204.7 1081C136.467 1081 68.2333 1081 34.1167 1081H0V986Z" fill="#000F19"/>
</g>
</g>
<defs>
<clipPath id="clip0_2_12">
<rect width="648" height="1080" fill="white"/>
</clipPath>
<clipPath id="clip1_2_12">
<rect width="2047" height="1080" fill="white"/>
</clipPath>
</defs>
</svg>
