<svg xmlns="http://www.w3.org/2000/svg" viewBox="0 0 116.93 30.37"><defs><style>.cls-1{fill:#005f30;}.cls-1,.cls-2{fill-rule:evenodd;}.cls-2,.cls-3{fill:#1d1d1b;}</style></defs><g id="Camada_2" data-name="Camada 2"><g id="Layer_1" data-name="Layer 1"><path class="cls-1" d="M97.17,19,101,13.27a9.8,9.8,0,0,0,2.71,2.49,5.48,5.48,0,0,0,2.87.86,1.9,1.9,0,0,0,1-.24.72.72,0,0,0,.37-.63q0-.6-1.65-1.29l-.56-.24a10,10,0,0,1-4-2.72,5.69,5.69,0,0,1-1.23-3.71,7.21,7.21,0,0,1,2.41-5.62A9.11,9.11,0,0,1,109.26,0a12.16,12.16,0,0,1,4.17.69,11.05,11.05,0,0,1,3.5,2.07l-3,5.4a12.5,12.5,0,0,0-2.34-1.74,4.12,4.12,0,0,0-1.93-.57,1.33,1.33,0,0,0-.87.26.86.86,0,0,0-.32.7c0,.49.63,1,1.91,1.58l.8.35a8.87,8.87,0,0,1,3.5,2.59,6,6,0,0,1,1,3.63,7.41,7.41,0,0,1-2.58,5.76,9.5,9.5,0,0,1-6.53,2.3,12.61,12.61,0,0,1-4.9-1,16,16,0,0,1-4.56-3ZM85.93,1.2l.36-.7h8.38l1,7.52L85.93,1.2ZM75.22,22.49h8.27l1.16-2.92h5.1l.15,2.92h7.54l-1.51-12L85.09,2.87,75.22,22.49Zm11.53-8.12h2.71L89.37,12c0-.13,0-.32,0-.56,0-1-.07-1.77-.07-2.37,0-.4,0-.71,0-.92s0-.43,0-.61c-.18.58-.35,1.15-.54,1.7s-.35,1-.51,1.46l-1.5,3.66Zm-24,8.12L59.12.5H66.8l.78,6.88c.1.91.18,1.79.22,2.63s.09,1.67.1,2.48c.21-.78.46-1.57.74-2.38s.6-1.61,1-2.42L72.74.5h8.43l-11.57,22Z"/><path class="cls-2" d="M46.6,22.49,50.52.5h7.8l-3.91,22Zm-25.31,0L25.2.5H33l2.44,7c0,.12.09.29.17.52a29,29,0,0,1,1.13,3.94L38.76.5h7.69l-3.92,22H34.76L30.84,11.13a43.39,43.39,0,0,1-.66,5l0,.18-1.09,6.15ZM2.32.5.65,9.9C.41,11.28.24,12.36.14,13.12A17.26,17.26,0,0,0,0,15a7.45,7.45,0,0,0,2.43,5.9,9.88,9.88,0,0,0,6.74,2.14,10.06,10.06,0,0,0,4.54-1,9,9,0,0,0,3.42-2.89,9.87,9.87,0,0,0,1.25-2.52,28,28,0,0,0,1-3.91L21.52.5H13.76L11.81,11.57a11.89,11.89,0,0,1-1,3.67A1.63,1.63,0,0,1,9.34,16a1.5,1.5,0,0,1-1.18-.46,2,2,0,0,1-.41-1.33,6.61,6.61,0,0,1,.07-.85c0-.36.17-1.08.37-2.16L10.1.5Z"/><path class="cls-3" d="M.62,26,.29,27.83c0,.21-.07.4-.09.56a2.47,2.47,0,0,0,0,.44,1.48,1.48,0,0,0,.22.82,1.43,1.43,0,0,0,.63.53,2.27,2.27,0,0,0,1,.19,2.59,2.59,0,0,0,.63-.08A2,2,0,0,0,3.16,30a1.68,1.68,0,0,0,.43-.41,1.88,1.88,0,0,0,.27-.53A5.31,5.31,0,0,0,4,28.38L4.47,26H2.92l-.4,2.14c0,.14,0,.27-.07.37a2.12,2.12,0,0,1-.09.27.42.42,0,0,1-.13.16A.39.39,0,0,1,2,29a.32.32,0,0,1-.24-.09.37.37,0,0,1-.08-.25,1.2,1.2,0,0,1,0-.23c0-.09,0-.22.06-.36L2.18,26Zm3.8,4.25L5.2,26H6.76l.49,1.35c0,.1.08.22.13.36s.09.31.13.5L7.92,26H9.46l-.79,4.25H7.12l-.79-2.19a2.8,2.8,0,0,1,0,.48c0,.16,0,.34-.08.52L6,30.26Zm5.07,0h1.56L11.83,26H10.27l-.78,4.25Zm3.22,0h1.38L16.41,26H14.72l-.63,1.39a6.61,6.61,0,0,0-.34.93c0-.17,0-.34,0-.5s0-.33,0-.49L13.53,26H12l.72,4.25Zm3.13,0L16.63,26h2.91l-.21,1.15H18l-.08.42h1.3L19,28.65h-1.3l-.08.46H19.1l-.22,1.15Zm5.64-2.36.16-.83h.09a.87.87,0,0,1,.41.08.31.31,0,0,1,.14.28.42.42,0,0,1-.17.36,1,1,0,0,1-.51.11Zm-2,2.36h1.53l.28-1.55.47,1.55h1.57l-.61-1.63a1.49,1.49,0,0,0,.57-.26,1.19,1.19,0,0,0,.35-.45,1.54,1.54,0,0,0,.12-.63,1.09,1.09,0,0,0-.46-.95A2.49,2.49,0,0,0,21.93,26H20.3l-.78,4.25Zm4.15-.67.76-1.11A1.88,1.88,0,0,0,25,29a1.13,1.13,0,0,0,.56.17.41.41,0,0,0,.21-.05.13.13,0,0,0,.07-.12.12.12,0,0,0-.05-.11.49.49,0,0,0-.15-.09l-.24-.1a2.6,2.6,0,0,1-.58-.32,1.31,1.31,0,0,1-.35-.4,1.24,1.24,0,0,1-.11-.52,1.5,1.5,0,0,1,.12-.6,1.35,1.35,0,0,1,.35-.47,1.5,1.5,0,0,1,.55-.32,2.38,2.38,0,0,1,.73-.11,2.55,2.55,0,0,1,.84.13,2.18,2.18,0,0,1,.69.4l-.59,1a2,2,0,0,0-.47-.33.89.89,0,0,0-.38-.11.24.24,0,0,0-.18.05.16.16,0,0,0-.06.13.18.18,0,0,0,.06.14.68.68,0,0,0,.19.11l.29.12a2.64,2.64,0,0,1,.51.31,1.1,1.1,0,0,1,.3.38,1.34,1.34,0,0,1,.1.52,1.47,1.47,0,0,1-.14.61,1.44,1.44,0,0,1-.37.49,1.83,1.83,0,0,1-.58.33,2.17,2.17,0,0,1-.74.12,2.54,2.54,0,0,1-1-.19,3.37,3.37,0,0,1-.92-.58Zm3.82.67h1.57L29.84,26H28.28l-.79,4.25Zm2.38,0h1.34a7.52,7.52,0,0,0,.86-.05A3.13,3.13,0,0,0,32.8,30a2.91,2.91,0,0,0,.63-.33,2.27,2.27,0,0,0,.48-.5,2.31,2.31,0,0,0,.3-.61,2.26,2.26,0,0,0,.1-.69,2,2,0,0,0-.12-.7,1.84,1.84,0,0,0-.34-.57,2.19,2.19,0,0,0-.57-.41,1.85,1.85,0,0,0-.61-.17,7,7,0,0,0-.87,0H30.65l-.78,4.25ZM31.65,29l.3-1.69h0a.9.9,0,0,1,.42.09.63.63,0,0,1,.26.25.67.67,0,0,1,.1.38,1.08,1.08,0,0,1-.13.52.91.91,0,0,1-.37.33,1.37,1.37,0,0,1-.6.12ZM34,30.26,36.18,26h1.68l.55,4.25H36.9l0-.56h-1l-.23.56Zm2.31-1.57h.54v-.45c0-.08,0-.16,0-.26v-.61c0,.14-.08.27-.12.37l-.09.24-.3.71Zm2.35,1.57H40a7.85,7.85,0,0,0,.87-.05,3.25,3.25,0,0,0,.73-.17,3.16,3.16,0,0,0,.63-.33,2.84,2.84,0,0,0,.48-.5,2.31,2.31,0,0,0,.3-.61,2.26,2.26,0,0,0,.1-.69,2,2,0,0,0-.12-.7,1.69,1.69,0,0,0-.35-.57,2,2,0,0,0-.56-.41,1.92,1.92,0,0,0-.61-.17,7.3,7.3,0,0,0-.87,0H39.41l-.79,4.25ZM40.4,29l.31-1.69h0a.86.86,0,0,1,.41.09.6.6,0,0,1,.27.25.76.76,0,0,1,.09.38,1,1,0,0,1-.13.52.8.8,0,0,1-.37.33,1.32,1.32,0,0,1-.59.12Zm2.85,1.28h3l.21-1.15H45l.09-.46h1.3l.19-1.07h-1.3l.08-.42h1.39l.2-1.15H44l-.78,4.25Zm5.71,0h1.33a7.85,7.85,0,0,0,.87-.05,3.38,3.38,0,0,0,.73-.17,3.16,3.16,0,0,0,.63-.33,2.84,2.84,0,0,0,.48-.5,2.31,2.31,0,0,0,.3-.61,2.61,2.61,0,0,0,.1-.69,2,2,0,0,0-.12-.7,1.69,1.69,0,0,0-.35-.57,1.9,1.9,0,0,0-.57-.41,1.78,1.78,0,0,0-.6-.17,7.3,7.3,0,0,0-.87,0H49.74L49,30.26ZM50.73,29,51,27.29h0a.93.93,0,0,1,.42.09.63.63,0,0,1,.26.25.77.77,0,0,1,.1.38,1,1,0,0,1-.14.52.8.8,0,0,1-.37.33,1.32,1.32,0,0,1-.59.12Zm5.21,1.39A2.61,2.61,0,0,0,57,30.16a2.29,2.29,0,0,0,.83-.62,2.35,2.35,0,0,0,.44-.75,2.86,2.86,0,0,0,.14-.89,2.07,2.07,0,0,0-.15-.8,1.81,1.81,0,0,0-.43-.63,2,2,0,0,0-.68-.41,2.42,2.42,0,0,0-.88-.15,2.92,2.92,0,0,0-.73.1,2.57,2.57,0,0,0-.63.28,2.51,2.51,0,0,0-.52.45,2.39,2.39,0,0,0-.44.75,2.64,2.64,0,0,0-.15.89,2.25,2.25,0,0,0,.08.58,1.84,1.84,0,0,0,1.23,1.29,2.73,2.73,0,0,0,.83.12Zm.23-3.05a.88.88,0,0,1,.37.1.67.67,0,0,1,.25.25.72.72,0,0,1,.09.37,1,1,0,0,1-.06.36,1,1,0,0,1-.18.29.76.76,0,0,1-.27.2A.72.72,0,0,1,56,29a.76.76,0,0,1-.38-.09.61.61,0,0,1-.24-.26.8.8,0,0,1-.09-.39,1,1,0,0,1,.06-.35.9.9,0,0,1,.18-.28.76.76,0,0,1,.27-.2,1.14,1.14,0,0,1,.33-.07Zm5.36,2.94h1.38L65.22,26H63.53l-.62,1.39a5.56,5.56,0,0,0-.34.93c0-.17,0-.34,0-.5s0-.33,0-.49L62.35,26H60.81l.72,4.25Zm2.49,0L66.24,26h1.68l.55,4.25H67l0-.56h-1l-.23.56Zm2.31-1.57h.54l0-.45V28a2.91,2.91,0,0,1,0-.31v-.3c0,.14-.08.27-.12.37a1.82,1.82,0,0,1-.09.24l-.3.71Zm2.36,1.57h2.86L71.8,29H70.49L71,26H69.47l-.78,4.25Zm3.26,0h3l.21-1.15H73.69l.09-.46h1.3l.19-1.07H74l.08-.42h1.38L75.64,26H72.73L72,30.26Zm5.71,0H79a7.85,7.85,0,0,0,.87-.05,3.38,3.38,0,0,0,.73-.17,2.83,2.83,0,0,0,.62-.33,2.27,2.27,0,0,0,.48-.5A2.07,2.07,0,0,0,82,28.6a2.61,2.61,0,0,0,.1-.69,2,2,0,0,0-.12-.7,1.69,1.69,0,0,0-.35-.57,2,2,0,0,0-.56-.41,1.92,1.92,0,0,0-.61-.17,7.3,7.3,0,0,0-.87,0H78.44l-.78,4.25ZM79.43,29l.31-1.69h0a.93.93,0,0,1,.42.09.63.63,0,0,1,.26.25.76.76,0,0,1,.09.38,1,1,0,0,1-.13.52.85.85,0,0,1-.37.33,1.32,1.32,0,0,1-.59.12Zm5.21,1.39a2.61,2.61,0,0,0,1.06-.21,2.29,2.29,0,0,0,.83-.62,2.35,2.35,0,0,0,.44-.75,2.86,2.86,0,0,0,.14-.89,2.07,2.07,0,0,0-.15-.8,2,2,0,0,0-.43-.63,2,2,0,0,0-.68-.41,2.46,2.46,0,0,0-.88-.15,2.86,2.86,0,0,0-.73.1,2.82,2.82,0,0,0-.64.28,2.74,2.74,0,0,0-.51.45,2.39,2.39,0,0,0-.44.75,2.64,2.64,0,0,0-.15.89,2.8,2.8,0,0,0,.08.58,2,2,0,0,0,.57.92,1.94,1.94,0,0,0,.66.37,2.73,2.73,0,0,0,.83.12Zm.23-3.05a.88.88,0,0,1,.37.1.67.67,0,0,1,.25.25.72.72,0,0,1,.09.37,1,1,0,0,1-.06.36,1,1,0,0,1-.18.29.86.86,0,0,1-.27.2.72.72,0,0,1-.33.07.76.76,0,0,1-.38-.09.55.55,0,0,1-.24-.26.8.8,0,0,1-.09-.39,1,1,0,0,1,.06-.35.75.75,0,0,1,.18-.28.68.68,0,0,1,.27-.2,1.14,1.14,0,0,1,.33-.07Zm4.24,2.27a3.37,3.37,0,0,0,.92.58,2.54,2.54,0,0,0,1,.19,2.17,2.17,0,0,0,.74-.12,1.83,1.83,0,0,0,.58-.33,1.44,1.44,0,0,0,.37-.49,1.47,1.47,0,0,0,.14-.61,1.34,1.34,0,0,0-.1-.52,1.1,1.1,0,0,0-.3-.38,3,3,0,0,0-.51-.31l-.29-.12a.68.68,0,0,1-.19-.11.18.18,0,0,1-.06-.14.16.16,0,0,1,.06-.13.24.24,0,0,1,.18-.05,1,1,0,0,1,.39.11,2.24,2.24,0,0,1,.46.33l.59-1a2.18,2.18,0,0,0-.69-.4,2.51,2.51,0,0,0-.84-.13,2.27,2.27,0,0,0-.72.11,1.55,1.55,0,0,0-.56.32,1.35,1.35,0,0,0-.35.47,1.5,1.5,0,0,0-.12.6,1.24,1.24,0,0,0,.11.52,1.31,1.31,0,0,0,.35.4,2.85,2.85,0,0,0,.58.32l.24.1a.49.49,0,0,1,.15.09.12.12,0,0,1,.05.11.13.13,0,0,1-.07.12.37.37,0,0,1-.2.05,1.14,1.14,0,0,1-.57-.17,2,2,0,0,1-.55-.48l-.76,1.11Zm3.38.67L94.7,26h1.68l.56,4.25H95.43l0-.56h-1l-.23.56Zm2.31-1.57h.54l0-.45a2.44,2.44,0,0,0,0-.26c0-.09,0-.19,0-.31a.71.71,0,0,1,0-.14v-.16c0,.14-.09.27-.12.37L95.1,28l-.3.71Zm2.35,1.57H98.7l.24-1.3h.6a2.65,2.65,0,0,0,1-.19,1.46,1.46,0,0,0,.65-.54,1.72,1.72,0,0,0,.22-.84,1.19,1.19,0,0,0-.47-1A2.36,2.36,0,0,0,99.57,26H97.94l-.79,4.25Zm2-2.41.14-.73h.07a.94.94,0,0,1,.43.08.24.24,0,0,1,.14.23.36.36,0,0,1-.17.32,1,1,0,0,1-.49.1ZM102.27,26l-.33,1.82c0,.21-.08.4-.1.56a4,4,0,0,0,0,.44,1.57,1.57,0,0,0,.22.82,1.43,1.43,0,0,0,.63.53,2.3,2.3,0,0,0,1,.19,2.59,2.59,0,0,0,.63-.08,1.93,1.93,0,0,0,.54-.26,1.81,1.81,0,0,0,.42-.41,1.88,1.88,0,0,0,.27-.53,5.23,5.23,0,0,0,.18-.71l.43-2.37h-1.55l-.39,2.14c0,.14,0,.27-.08.37a.85.85,0,0,1-.09.27.4.4,0,0,1-.12.16.42.42,0,0,1-.2.05.3.3,0,0,1-.24-.09.33.33,0,0,1-.09-.25,1.2,1.2,0,0,1,0-.23c0-.09,0-.22.06-.36l.38-2.06Zm7.1,2.69a1.16,1.16,0,0,1-.27.14l-.28.09-.26,0a.8.8,0,0,1-.39-.09.63.63,0,0,1-.26-.25.8.8,0,0,1-.09-.39.91.91,0,0,1,.12-.47.76.76,0,0,1,.32-.32,1,1,0,0,1,.48-.12,1.45,1.45,0,0,1,.41.06,2.34,2.34,0,0,1,.43.2l.26-1.42a2.23,2.23,0,0,0-.51-.19,2.62,2.62,0,0,0-.57-.06,2.86,2.86,0,0,0-.73.1,2.82,2.82,0,0,0-.64.28,2.51,2.51,0,0,0-.52.45,2.3,2.3,0,0,0-.43.76,2.54,2.54,0,0,0-.15.88,1.89,1.89,0,0,0,.08.58,1.73,1.73,0,0,0,.22.5,1.57,1.57,0,0,0,.35.42,1.86,1.86,0,0,0,.62.37,2.27,2.27,0,0,0,.75.12,2.56,2.56,0,0,0,.39,0,2.85,2.85,0,0,0,.39-.11l.28-1.53Zm.07,1.56L111.66,26h1.68l.55,4.25h-1.51l0-.56h-1l-.23.56Zm2.31-1.57h.54v-.45a2.09,2.09,0,0,1,0-.26,2.91,2.91,0,0,1,0-.31v-.14a.92.92,0,0,1,0-.16c0,.14-.09.27-.13.37a1.82,1.82,0,0,1-.09.24l-.3.71Zm3.45-3.1h.49l1.08-1h-.92l-.65,1Zm-1.06,4.67h1.56l.78-4.25h-1.56Z"/></g></g></svg>